<svg xmlns="http://www.w3.org/2000/svg" viewBox="0 0 32 32" role="img" aria-label="Aura At Çiftlii">
  <circle cx="16" cy="16" r="16" fill="#2d6a4f"/>
  <circle cx="16" cy="16" r="15" fill="url(#bg)" stroke="#f4a261" stroke-width="1"/>
  <defs>
    <linearGradient id="bg" x1="0" y1="0" x2="32" y2="32" gradientUnits="userSpaceOnUse">
      <stop stop-color="#2d6a4f"/>
      <stop offset="1" stop-color="#1b4332"/>
    </linearGradient>
  </defs>
  <path fill="#fefae0" d="M22 10c-1.2-2.8-4-4.2-7-3.8-2.2.3-4 1.8-4.8 3.8-.5 1.1-.5 2.3-.2 3.4.3 1 .9 1.9 1.6 2.6l-.4 3.2c-.1.8.5 1.5 1.3 1.6.5.1 1-.2 1.3-.6l1.5-2.1c.8.2 1.6.3 2.4.2 2.5-.3 4.5-2.2 5.1-4.6.4-1.5.2-3-.4-4.3z"/>
  <circle cx="18.8" cy="12.2" r="1" fill="#1b4332"/>
  <path fill="#f4a261" d="M21.8 9.5c.8-.6 1.6-1 2.4-1.1.3 0 .5.3.4.6-.5 1.1-1.4 2-2.5 2.5-.3.1-.6-.2-.3-.4z"/>
</svg>
